<svg width="41" height="41" viewBox="0 0 41 41" fill="none" xmlns="http://www.w3.org/2000/svg">
<path d="M39.8666 25.017C37.1913 35.7476 26.3229 42.2781 15.591 39.6022C4.86352 36.9269 -1.667 26.0579 1.00955 15.3279C3.68361 4.596 14.552 -1.93515 25.2807 0.740153C36.012 3.41546 42.5419 14.2857 39.8666 25.017Z" fill="#828282"/>
<path d="M29.2693 17.3178C29.668 14.6525 27.6387 13.2197 24.8638 12.2639L25.764 8.65343L23.5663 8.10573L22.6899 11.6211C22.1122 11.4771 21.5188 11.3413 20.9291 11.2067L21.8117 7.66819L19.6153 7.12048L18.7145 10.7297C18.2363 10.6208 17.7668 10.5131 17.3112 10.3998L17.3137 10.3886L14.2828 9.63179L13.6982 11.9791C13.6982 11.9791 15.3288 12.3528 15.2943 12.3759C16.1844 12.5982 16.3453 13.1872 16.3184 13.6541L15.2931 17.7672C15.3544 17.7829 15.4339 17.8054 15.5216 17.8405C15.4483 17.8223 15.3701 17.8023 15.2893 17.7829L13.8522 23.5448C13.7432 23.8152 13.4672 24.2208 12.845 24.0668C12.8669 24.0987 11.2476 23.6681 11.2476 23.6681L10.1566 26.1838L13.0165 26.8967C13.5486 27.03 14.07 27.1696 14.5833 27.3011L13.6738 30.9529L15.869 31.5006L16.7697 27.8876C17.3694 28.0503 17.9515 28.2006 18.5211 28.342L17.6235 31.9381L19.8212 32.4858L20.7307 28.8409C24.4783 29.5501 27.2963 29.264 28.4825 25.8745C29.4383 23.1454 28.4349 21.5711 26.4631 20.5446C27.8991 20.2135 28.9807 19.2689 29.2693 17.3178ZM24.2479 24.3591C23.5688 27.0883 18.9737 25.6129 17.4839 25.243L18.6907 20.405C20.1805 20.7768 24.9577 21.5129 24.2479 24.3591ZM24.9277 17.2784C24.308 19.7609 20.4835 18.4996 19.2428 18.1904L20.337 13.8025C21.5776 14.1117 25.573 14.6888 24.9277 17.2784Z" fill="#1B1A1A"/>
</svg>
