<svg width="41" height="43" viewBox="0 0 41 43" fill="none" xmlns="http://www.w3.org/2000/svg">
<path d="M32.1199 26.6106C32.8221 26.8798 33.0922 27.9278 33.1459 28.385C33.2542 29.2191 33.0117 29.5417 32.7416 29.5417C32.4714 29.5417 32.093 29.2191 31.6887 28.5739C31.2835 27.9278 31.1216 27.2024 31.338 26.8254C31.4722 26.5831 31.7692 26.4761 32.1207 26.6106H32.1199ZM28.0174 29.6495C28.4495 29.6495 28.9353 29.8376 29.3673 30.2137C30.2037 30.9132 30.447 31.7197 30.015 32.3115C29.7717 32.6073 29.3673 32.7954 28.9084 32.7954C28.4495 32.7954 27.9638 32.6341 27.6399 32.3382C26.884 31.693 26.6684 30.6165 27.1533 30.0256C27.3429 29.7832 27.6399 29.6495 28.0174 29.6495ZM18.5709 37.4206C8.31312 37.4206 0 29.138 0 18.9198C0 8.70163 8.31396 0.419922 18.5701 0.419922C28.827 0.419922 37.141 8.70246 37.141 18.9198C37.141 22.3883 36.1695 25.6428 34.5235 28.4126C34.4689 28.4928 34.3339 28.4661 34.307 28.3582C33.6594 23.8141 30.8791 21.3127 26.8303 20.5605C26.4788 20.5061 26.4251 20.2913 26.884 20.2378C28.1257 20.13 29.8799 20.1568 30.7977 20.3181C30.8514 19.8609 30.8791 19.377 30.8791 18.8931C30.8791 12.1434 25.3723 6.65732 18.5969 6.65732C11.8224 6.65732 6.31559 12.1434 6.31559 18.8931C6.31559 25.6428 11.8224 31.1288 18.5978 31.1288H19.1641C18.9717 30.0371 18.8902 28.9288 18.9208 27.8208C18.9484 27.0678 19.1104 26.96 19.4342 27.5517C21.1347 30.4828 23.5643 33.118 28.3144 34.1669C32.2013 35.0277 36.0881 36.0223 40.2719 41.3195C40.6495 41.7766 40.0832 42.2605 39.6511 41.8844C35.3867 38.1193 31.4999 36.8823 27.9638 36.8823C23.9955 36.9099 21.2966 37.4206 18.5701 37.4206H18.5709Z" fill="#828282"/>
</svg>
