<svg width="48" height="43" viewBox="0 0 48 43" fill="none" xmlns="http://www.w3.org/2000/svg">
<path d="M47.3857 20.1411L48 18.1794L45.9677 18.2429C45.796 18.2429 44.5479 18.2076 43.3372 17.3317C43.4274 17.3406 43.5176 17.3529 43.6098 17.3529C44.856 17.3529 46.0615 16.6042 46.5448 15.534L47.4194 13.6004C46.3235 13.6146 45.3216 13.4768 45.3216 13.4768C45.3127 13.475 44.5232 13.3744 43.6098 12.4437C42.9547 11.7763 42.144 11.423 41.2658 11.423C40.8818 11.423 40.5383 11.4919 40.2427 11.5855C40.2887 11.4284 40.3329 11.2694 40.3579 11.1052C40.6374 9.29517 39.4691 7.91424 39.4691 7.9161L37.9414 6.02839L36.9943 8.24626C36.9907 8.25335 36.7518 8.77257 36.3234 9.02678C36.1941 8.37517 35.8773 7.64237 35.1993 6.94129C33.9211 5.62041 32.3651 5.42438 31.5507 5.42438C31.1736 5.42438 30.9046 5.46503 30.839 5.4756L28.9945 5.83769C29.1007 5.42624 29.3273 4.71099 29.7415 4.06645L30.7595 2.48428L28.1978 2.77565L27.3817 1.0468L25.8027 1.85914L24.3423 0.419922L22.8852 1.85914L21.3009 1.0468L20.4865 2.77565L17.9269 2.48428L18.9464 4.06645C19.3607 4.71099 19.5873 5.42438 19.6918 5.83584L17.932 5.48976L17.8719 5.4792C17.7834 5.46503 17.5161 5.42438 17.1373 5.42438C16.3229 5.42438 14.7669 5.62216 13.4922 6.94129C12.8124 7.64064 12.4956 8.37517 12.3646 9.02678C11.9398 8.77605 11.7025 8.26391 11.7025 8.26391L10.7537 6.0336L9.20123 7.93375C9.01173 8.17913 8.07534 9.47716 8.3302 11.1088C8.35681 11.2713 8.39927 11.4301 8.44532 11.5874C8.15146 11.4937 7.80798 11.4249 7.4239 11.4249C6.54582 11.4249 5.73507 11.7781 5.0783 12.4456C4.16828 13.3727 3.3823 13.4768 3.38946 13.4768C3.38946 13.4768 2.55917 13.6251 1.27398 13.6021L2.14315 15.5358C2.6265 16.6078 3.83371 17.3547 5.0783 17.3547C5.17213 17.3547 5.26235 17.3422 5.35445 17.3334C4.14712 18.2093 2.89907 18.2446 2.74855 18.2464L0.677368 18.1794L1.30405 20.1394C1.61919 21.1496 2.67243 22.8236 4.69063 23.0036C4.47105 23.9219 3.98423 24.9497 2.91503 25.3929L1.37312 26.0268L2.21395 27.4872C2.68839 28.2748 3.8019 29.1965 5.38799 29.1965C5.73148 29.1948 6.06246 29.1612 6.38119 29.0942C6.46263 29.4544 6.56525 29.8147 6.68569 30.1713C7.15828 31.5734 6.75116 32.5517 6.74584 32.5623L5.98461 34.1533L7.68408 34.6002C7.70536 34.6072 8.21868 34.7467 8.86133 34.7467C9.15345 34.7467 9.4313 34.7167 9.69336 34.655C9.89155 34.6089 10.0811 34.5472 10.2633 34.473C10.4829 34.8667 10.7502 35.2253 11.0618 35.5466C12.1505 36.6609 13.6924 37.2259 15.6467 37.2259H15.6538L17.0488 37.2083L14.1668 38.402L16.3548 39.4563C17.1497 39.843 18.0932 40.3003 19.0527 40.65L18.7801 41.3952L19.5342 41.7378C19.6014 41.7677 21.0513 42.4159 23.4625 42.5536C23.4625 42.5536 24.0449 42.5801 24.3652 42.5801C24.6856 42.5801 25.2609 42.5519 25.2609 42.5519C27.6562 42.4106 29.0953 41.7696 29.1627 41.7378L29.9185 41.3935L29.6424 40.6465C30.6302 40.2862 31.6073 39.8111 32.3686 39.4404L34.5159 38.4003L31.6427 37.2049L33.043 37.2225C34.9992 37.2225 36.5429 36.6574 37.6297 35.5414C37.9396 35.2217 38.2069 34.8633 38.4282 34.4695C38.6106 34.5437 38.8017 34.6054 39 34.6514C39.2602 34.7131 39.5382 34.7432 39.8302 34.7432C40.4622 34.7432 40.9809 34.6038 40.995 34.6002L42.7016 34.1499L41.958 32.5888C41.9404 32.5482 41.5332 31.5716 42.0059 30.1678C42.1262 29.8093 42.2271 29.4491 42.3086 29.0906C42.6291 29.1577 42.9636 29.193 43.3088 29.193C45.3286 29.193 46.2969 27.775 46.4846 27.4678L47.3167 26.0234L45.7747 25.3911C44.7038 24.9478 44.2187 23.9183 44.001 23.002C45.9907 22.8324 47.0599 21.1583 47.3857 20.1411ZM19.8262 6.51218L19.8051 6.51752L19.8228 6.49454L19.8262 6.51218Z" fill="#8C8C8C"/>
<path d="M24.3387 6.44275C22.7646 6.44463 21.5851 7.02033 21.3272 7.69707L24.3387 9.02398L27.3501 7.69707C27.094 7.02033 25.9144 6.44463 24.3387 6.44275Z" fill="#8C8C8C"/>
<path d="M24.371 38.652H24.3674H24.3405H24.31H24.3082C23.3071 38.6588 21.93 38.4624 21.2656 38.2781L20.4668 40.3386C20.9934 40.518 22.7771 40.8593 24.3405 40.8593C25.9003 40.8593 27.6858 40.5163 28.2105 40.3386L27.4135 38.2781C26.7474 38.4641 25.372 38.6588 24.371 38.652Z" fill="#686868"/>
<path d="M30.5312 36.5573C29.829 36.861 28.2617 37.3164 27.3501 37.5281L28.1158 39.1385C29.5264 38.8444 30.6897 38.5005 31.6522 38.1322L30.0637 37.7283L30.5312 36.5573Z" fill="#686868"/>
<path d="M18.7828 36.5573L19.1586 37.7283L17.8856 38.1322C18.6541 38.5005 19.5903 38.8444 20.7144 39.1385L21.3272 37.5281C20.6009 37.3164 19.3448 36.8593 18.7828 36.5573Z" fill="#686868"/>
<path d="M24.3359 4.58654C25.614 4.58654 26.8681 4.94742 27.8317 5.58239C27.92 5.23224 28.0432 4.8083 28.2105 4.36478L27.8465 4.41697L27.4639 4.46486L27.302 4.05395L26.8148 2.83648L25.9265 3.38423L25.5809 3.59298L25.305 3.27128L24.3396 2.14075L23.376 3.27128L23.1001 3.59298L22.7545 3.38423L21.8607 2.83648L21.3789 4.05395L21.2135 4.46486L20.8309 4.41697L20.4668 4.36478C20.6342 4.81044 20.7556 5.23224 20.8456 5.58239C21.8111 4.94742 23.0615 4.58654 24.3359 4.58654Z" fill="#8C8C8C"/>
<path d="M43.277 15.8393C43.4409 15.8861 43.6081 15.9073 43.7738 15.9073C44.4889 15.9073 45.1804 15.5232 45.4188 15.0832C45.4188 15.0832 44.1068 15.0167 42.6965 13.8265C42.2471 13.4409 41.7722 13.326 41.3645 13.326C40.7313 13.326 40.2563 13.6043 40.2563 13.6043C41.9596 14.3573 42.307 15.5671 43.277 15.8393Z" fill="#686868"/>
<path d="M4.90181 15.9073C5.06735 15.9073 5.23478 15.8861 5.39497 15.8393C6.36843 15.5671 6.71782 14.3573 8.42108 13.6043C8.42108 13.6043 7.94422 13.326 7.31467 13.326C6.90523 13.326 6.43027 13.4409 5.97898 13.8265C4.57063 15.0167 3.25861 15.0832 3.25861 15.0832C3.49335 15.5232 4.18665 15.9073 4.90181 15.9073Z" fill="#686868"/>
<path d="M43.7889 21.7292C43.8182 21.7309 43.8438 21.7309 43.8749 21.7309C45.6698 21.7309 46.2792 19.9063 46.2792 19.9063H46.2443C45.9151 19.9063 43.2455 19.8335 41.3591 17.5576C40.1168 16.0613 39.0994 14.7453 37.0885 14.2279L36.891 14.195L36.8471 14.004C36.7922 13.7124 37.0026 13.4399 37.4802 13.1447C40.254 11.421 38.3712 9.22315 38.3712 9.22315C38.3712 9.22315 37.579 10.9817 35.806 10.9817C35.7639 10.9817 35.7181 10.9799 35.6743 10.9799C35.4731 10.9696 35.2791 10.9626 35.0832 10.9228L34.7557 10.8619C34.7557 10.8619 35.2608 9.55822 34.0422 8.36039C33.1236 7.45598 32.0057 7.30322 31.3599 7.30322C31.0341 7.30322 30.8274 7.34306 30.8274 7.34306C31.4403 8.10341 31.8831 9.3638 31.1751 10.1415C30.564 10.8098 29.0709 10.8428 29.0709 11.8392C29.0709 12.2611 29.4863 12.7542 30.2328 13.1968C32.4778 14.5387 34.7063 16.3181 35.6321 18.7034C36.7904 21.6788 35.4858 23.6527 33.6232 24.7845C33.6232 24.7845 34.2069 25.2949 35.0541 25.3591C35.226 25.3747 35.3944 25.3816 35.5517 25.3816C37.3393 25.3816 38.2633 24.5866 38.2633 24.5866C38.2633 24.5866 38.1113 25.6854 37.18 26.7062C36.322 27.6488 35.1949 28.2027 33.4768 28.2269C33.4768 28.2269 33.4219 28.9838 34.1831 29.6383C34.6697 30.0515 35.795 30.1868 35.795 30.1868C35.795 30.1868 33.689 30.5913 33.4567 33.5425C33.3304 35.1413 32.9004 35.6968 32.9004 35.6968H32.939C37.8259 35.6968 37.6997 31.7198 37.6997 31.7198C37.6997 31.7198 38.04 32.8967 39.4031 33.204C39.5677 33.2457 39.7434 33.2613 39.9117 33.2613C40.351 33.2613 40.7315 33.1641 40.7315 33.1641C40.7315 33.1641 40.0179 31.7354 40.7259 29.7372C41.3133 28.0794 41.2182 26.8503 41.2182 26.8503C41.2182 26.8503 41.8768 27.7947 43.509 27.8034H43.5254C44.8849 27.8034 45.4776 26.826 45.4776 26.826C42.219 25.5431 42.5411 21.4011 42.5411 21.4011C42.5411 21.4011 42.9638 21.6996 43.7889 21.7292ZM42.8081 26.0551C41.4834 25.4355 40.6455 23.7898 40.4424 23.196C40.2228 26.4597 38.5432 28.7252 36.5799 30.9055C35.5608 32.0356 35.2059 33.1345 35.2059 33.1345C35.2059 33.1345 35.4016 31.8899 36.2835 30.8761C38.1151 28.7876 39.8551 26.1889 39.985 23.1839C40.0746 21.0868 39.5056 19.3856 38.6182 17.9847C39.114 19.4447 39.0446 21.2327 37.3594 22.9009C37.3594 22.9009 40.7132 19.0869 36.0237 15.1776C34.1465 13.6899 32.0936 12.7715 31.0361 12.1206C34.8564 13.3027 36.7209 12.0007 36.7209 12.0007C35.5004 13.0041 33.9215 12.9867 32.9425 12.8427C33.2078 12.966 33.4842 13.0944 33.7824 13.2454C37.0026 14.9051 39.8972 17.6357 40.3911 21.4185V21.3889C41.1413 25.1021 42.8081 26.0551 42.8081 26.0551Z" fill="#8C8C8C"/>
<path d="M13.2196 30.1868C13.2196 30.1868 14.2887 30.0532 14.7511 29.6383C15.4725 28.9838 15.4222 28.2269 15.4222 28.2269C13.7881 28.2043 12.719 27.6488 11.8985 26.708C11.0205 25.6872 10.8745 24.5883 10.8745 24.5883C10.8745 24.5883 11.7523 25.3834 13.4491 25.3834C13.6021 25.3834 13.7603 25.3765 13.9236 25.3608C14.7285 25.2966 15.2848 24.7862 15.2848 24.7862C13.515 23.6544 12.274 21.6788 13.3726 18.7034C14.254 16.3198 16.3695 14.5387 18.5027 13.1968C19.2119 12.7542 19.6064 12.2628 19.6064 11.8392C19.6064 10.8428 18.1896 10.8098 17.609 10.1415C16.9364 9.3638 17.3588 8.1017 17.9393 7.34306C17.9393 7.34306 17.7464 7.30322 17.4351 7.30322C16.8233 7.30322 15.7611 7.45598 14.8885 8.36039C13.7272 9.55822 14.2088 10.8619 14.2088 10.8619L13.8976 10.9228C13.7116 10.9626 13.5255 10.9696 13.3361 10.9799C13.2927 10.9799 13.2544 10.9817 13.2127 10.9817C11.5247 10.9817 10.7755 9.22486 10.7755 9.22486C10.7755 9.22486 8.98663 11.4227 11.6203 13.1464C12.074 13.4416 12.2723 13.7141 12.2201 14.0058L12.1783 14.1968L11.9871 14.2298C10.0801 14.7471 9.11183 16.0629 7.93146 17.5593C6.14261 19.8318 3.60977 19.9063 3.29349 19.9063H3.25861C3.25861 19.9063 3.83755 21.7309 5.54289 21.7309C5.57072 21.7309 5.59503 21.7309 5.62457 21.7292C6.40857 21.7014 6.81187 21.4011 6.81187 21.4011C6.81187 21.4011 7.1144 25.5413 4.02181 26.826C4.02181 26.826 4.58508 27.8034 5.87666 27.8034H5.89234C7.44465 27.7947 8.06881 26.8503 8.06881 26.8503C8.06881 26.8503 7.97837 28.0794 8.5347 29.7372C9.20736 31.7354 8.53289 33.1641 8.53289 33.1641C8.53289 33.1641 8.8945 33.2613 9.30996 33.2613C9.47161 33.2613 9.6368 33.2457 9.79153 33.204C11.0848 32.8967 11.4099 31.7198 11.4099 31.7198C11.4099 31.7198 11.2917 35.6968 15.935 35.6968H15.9679C15.9679 35.6968 15.5612 35.1413 15.443 33.5425C15.2205 30.5913 13.2196 30.1868 13.2196 30.1868ZM12.4739 30.9055C10.6086 28.7252 9.01447 26.4597 8.80406 23.196C8.61117 23.7881 7.81842 25.4355 6.55989 26.0551C6.55989 26.0551 8.14174 25.1021 8.8528 21.3889V21.4185C9.32393 17.6375 12.0723 14.9051 15.1335 13.2454C15.4134 13.0927 15.6794 12.9643 15.9298 12.8427C14.9997 12.9867 13.4995 13.0041 12.34 12.0007C12.34 12.0007 14.1114 13.3027 17.7394 12.1206C16.7347 12.7715 14.7859 13.6899 13.0023 15.1776C8.54504 19.0869 11.7333 22.9009 11.7333 22.9009C10.1305 21.2309 10.0662 19.4447 10.5373 17.9847C9.69246 19.3873 9.15352 21.0868 9.24043 23.1839C9.36209 26.1889 11.0153 28.7876 12.752 30.8761C13.5917 31.8881 13.7812 33.1345 13.7812 33.1345C13.7812 33.1345 13.4403 32.0356 12.4739 30.9055Z" fill="#8C8C8C"/>
<path d="M20.9232 15.4677C20.9992 15.5533 21.0736 15.6465 21.1447 15.7394C21.162 15.7614 21.1774 15.7814 21.1947 15.807C21.2606 15.8999 21.328 15.9986 21.3921 16.0988C21.4059 16.1189 21.4198 16.1427 21.4353 16.1662C21.5132 16.2904 21.5859 16.4181 21.6585 16.5495C22.3246 17.7625 23.3923 18.4867 24.3387 18.4885C25.2869 18.4867 26.351 17.7625 27.0207 16.5495C27.0951 16.4144 27.1695 16.2831 27.2472 16.1609C27.2594 16.1427 27.2716 16.1262 27.2819 16.108C27.3476 16.004 27.4169 15.9018 27.4896 15.8033C27.5051 15.7814 27.5189 15.7632 27.5328 15.745C27.6072 15.6482 27.6833 15.5534 27.7612 15.4658C27.775 15.4512 27.7853 15.4385 27.7975 15.4276C28.1366 15.0609 28.5415 14.7817 29.0709 14.6267L28.8356 14.4827H28.8219L27.8839 13.908L26.9203 13.326L24.3456 14.8037L24.3387 14.7981L24.3335 14.8037L21.7571 13.326L20.7951 13.9061L19.8556 14.4807H19.8452L19.6064 14.6249C20.1376 14.7799 20.5407 15.0554 20.8816 15.422C20.8971 15.4366 20.9075 15.4531 20.9232 15.4677ZM23.297 15.3491H24.3871H25.4755V16.1371C25.2195 15.807 24.7212 15.8745 24.7212 15.8745V17.011C24.7212 17.011 24.7401 17.5692 24.9252 17.8117H24.3871H23.8473C24.0359 17.571 24.0532 17.011 24.0532 17.011V15.8745C24.0532 15.8745 23.5566 15.807 23.297 16.1371V15.3491Z" fill="#8C8C8C"/>
<path d="M23.9084 14.1865V9.23312L21.3272 8.16357L22.0086 12.9643L23.9084 14.1865ZM23.3537 10.4494V11.2446L23.2287 11.1741C23.2223 11.1682 23.0395 11.1173 22.7188 10.8078C22.1898 10.3064 22.1802 9.84416 22.1802 9.84416L23.3537 10.4494Z" fill="#8C8C8C"/>
<path d="M26.6715 12.9643L27.3501 8.16357L24.7689 9.23312V14.1865L26.6715 12.9643ZM25.324 10.4494L26.4982 9.8461C26.4982 9.8461 26.4887 10.3084 25.9576 10.8097C25.6384 11.1192 25.4539 11.1701 25.4475 11.176L25.3222 11.2465V10.4494H25.324Z" fill="#8C8C8C"/>
<path d="M20.3325 24.3854C20.6329 24.4895 20.9963 24.5115 21.1818 24.5115C21.1895 24.4895 21.199 24.462 21.2086 24.4292C21.2258 24.3763 21.2412 24.3251 21.2527 24.2666C21.3043 24.011 21.3234 23.7205 21.3272 23.5342C21.2009 23.4592 21.0231 23.3258 20.9237 23.1267C20.8089 22.8966 20.6463 22.7906 20.4071 22.7906C20.0973 22.7906 19.7645 22.9678 19.6228 23.052C19.5101 23.6894 20.0016 24.2685 20.3325 24.3854Z" fill="#8C8C8C"/>
<path d="M26.5642 21.9302C26.019 22.54 24.9522 23.6022 24.8993 23.6566L24.8355 23.7242L21.464 23.6697C21.4621 24.0132 21.4074 24.3059 21.3546 24.5198C21.3455 24.5555 21.3364 24.593 21.3272 24.6305L25.3388 25.3718C25.7564 25.0716 26.9051 24.2083 27.3501 23.8706C27.0255 23.3827 26.9944 22.8047 27.0674 22.3975C26.8559 22.2568 26.6936 22.0991 26.5642 21.9302Z" fill="#8C8C8C"/>
<path d="M26.9878 17.6339C26.2729 18.4297 25.5867 18.7232 24.9744 18.791C24.8636 18.8042 24.7512 18.8116 24.6371 18.8116H24.6286H24.6219C24.5079 18.8116 24.3938 18.8042 24.283 18.791C24.1757 18.7796 24.0633 18.7608 23.9509 18.7327C23.9105 18.9113 23.8602 19.2858 24.0045 19.6395C24.1337 19.9613 24.3972 20.2002 24.7814 20.3583L24.9105 20.4147L24.9123 20.5709C24.9123 20.6178 24.9424 21.6302 25.9273 21.9104C26.0884 21.7242 26.2343 21.5568 26.3418 21.4174C26.1404 20.8869 26.246 20.345 26.538 20.0797C26.5247 20.1362 26.3971 21.4646 27.3469 21.9574L27.5029 22.0403L27.4558 22.2266C27.4407 22.283 27.1236 23.5681 28.273 24.046L28.476 24.1325L28.3853 24.3546C28.3653 24.4035 27.914 25.5701 28.9761 26.2323H31.2796V24.1815C30.4609 24.0685 30.1135 23.3311 30.0246 22.8079C29.6438 22.7346 29.3485 22.5502 29.1471 22.2491C28.6638 21.536 29.08 20.8832 29.085 20.8474C29.0834 20.8531 29.085 21.5492 29.4676 21.9782C29.6572 22.1851 29.8821 22.3451 30.2226 22.3809L30.3904 22.3978L30.4055 22.5898C30.4088 22.631 30.5012 23.5719 31.2813 23.7205L31.2796 19.5323C31.2796 18.8832 31.4491 18.2303 31.6522 17.6282H26.9878V17.6339Z" fill="#8C8C8C"/>
<path d="M20.5241 19.8368L20.4668 21.8954L20.7163 21.9302L21.3272 19.9558L21.0172 19.349L20.5241 19.8368Z" fill="#8C8C8C"/>
<path d="M27.9684 31.1891C27.9886 31.1891 28.0121 31.1924 28.0339 31.1973C28.4453 31.3106 28.5495 32.7416 29.2714 32.8695C29.342 32.8841 29.4075 32.8873 29.4646 32.8873C29.6728 32.8873 29.797 32.8014 29.9313 32.6493C29.9313 32.6493 29.5686 32.0989 29.2967 31.7283C28.9357 31.2426 28.6553 30.6549 27.9836 30.6549C27.9684 30.6549 27.9484 30.6549 27.9316 30.6567C27.7099 30.6679 27.5739 30.7715 27.5739 30.7715C27.3018 30.6064 27.0484 30.5497 26.8182 30.5497C26.3969 30.5497 26.0695 30.736 25.9065 30.736H25.8998L24.3986 30.5935C24.1636 30.5724 23.9789 30.3442 23.9118 30.2552C23.8949 30.2308 23.8866 30.2163 23.8866 30.2163C23.8866 30.1774 23.8866 30.137 23.8832 30.1013C23.8329 28.918 22.8825 28.4113 22.545 28.4032C22.545 28.4032 22.5852 28.1782 22.4929 28.0924L22.1621 28.4792L21.0757 27.9531L21.8498 28.8257L21.1933 29.5363C21.1109 29.6174 21.121 29.7275 21.1547 29.7727L21.4384 30.0139L21.7978 29.8035C21.8162 29.7906 21.8482 29.7873 21.8884 29.7873C21.9875 29.7873 22.137 29.8115 22.2713 29.8115C22.4173 29.8115 22.545 29.7808 22.5601 29.648C22.5148 30.0867 22.0933 30.8492 22.3704 31.4482L22.5753 31.8999L21.2487 31.7152L20.6274 32.727C20.436 33.0638 20.4058 33.428 20.5905 33.6255L20.8221 33.9056C20.8221 33.9056 21.1479 33.572 21.2218 33.3535L21.116 33.2418C21.027 33.1479 21.0321 33.0638 21.0859 32.9618L21.4753 32.3385L23.0419 32.6947L23.1242 32.5587C23.23 32.3887 23.3829 32.3369 23.5508 32.3369C23.6196 32.3369 23.6901 32.345 23.764 32.3563C24.0545 32.4114 24.5331 32.4858 25.0116 32.4858C25.5371 32.4858 26.0577 32.3952 26.3346 32.0958C26.9022 32.9068 28.0524 33.0362 27.9617 33.4474L27.6595 34.8364C27.8594 34.8283 28.0524 34.8153 28.2354 34.791L28.5226 33.3454C28.5545 33.1883 28.5847 32.9763 28.5847 32.9763C28.4739 32.8679 28.2052 32.638 28.0542 32.3596C27.8509 31.9839 27.9617 31.7881 27.772 31.2992C27.7787 31.3025 27.8358 31.1891 27.9684 31.1891ZM22.1084 29.1591C22.0312 29.1575 21.9757 29.0944 21.979 29.02C21.9858 28.9487 22.0479 28.8921 22.1234 28.8985C22.2007 28.9018 22.2562 28.9665 22.2528 29.0378C22.246 29.109 22.1823 29.1641 22.1084 29.1591Z" fill="#8C8C8C"/>
<path d="M19.8091 32.2551C19.8091 32.2551 20.412 32.0436 20.4666 31.892L20.3866 31.7204C20.33 31.6088 20.3378 31.4871 20.4471 31.4206L21.0988 31.0357L22.1876 31.214C22.1876 31.214 21.9905 31.0041 22.0101 30.7225L20.972 30.5343L19.9925 31.044C19.5729 31.3122 19.5417 31.7503 19.6803 32.0101L19.8091 32.2551Z" fill="#8C8C8C"/>
<path d="M26.4897 34.8364C26.6254 34.8307 26.7747 34.8279 26.9389 34.8279C26.9389 34.8279 27.3285 33.6257 27.3501 33.5871C27.1317 33.4853 26.6783 33.2316 26.5032 33.1156C26.6186 33.2976 26.8996 33.5067 26.844 33.6672L26.4897 34.8364Z" fill="#8C8C8C"/>
<path d="M31.6522 26.2323H17.0251V31.4507C17.0251 33.5842 18.6534 34.9204 21.0558 34.9204C23.0637 34.9204 23.5928 34.9937 24.3396 35.6968C24.8541 35.2107 25.28 35.0287 26.1539 34.9605L26.1741 34.8801L26.6351 33.5283C26.6093 33.4986 25.8553 32.6854 25.8553 32.6854C25.5565 32.7799 25.3058 32.7956 24.8836 32.7956C24.4502 32.7956 23.9617 32.7483 23.4325 32.6539C23.379 32.6418 23.3292 32.6382 23.2793 32.6382C23.2148 32.6382 23.2094 32.6434 23.1928 32.6732L23.1005 32.8165L22.9328 33.0789L22.6175 33.0107L21.2143 32.6976L21.0225 32.9985L21.052 33.0299L21.2235 33.2083L21.148 33.4409C21.0446 33.7452 20.7091 34.1001 20.6077 34.1982L20.2573 34.5549L19.9384 34.1719L19.6988 33.8869C19.446 33.6193 19.3872 33.2083 19.5291 32.7782C19.5253 32.7815 19.5198 32.7833 19.5144 32.7833L19.118 32.939L18.939 32.5717L18.8137 32.3112C18.598 31.853 18.6771 31.1832 19.2581 30.7792L20.3884 30.1741L21.4633 30.3753C21.4891 30.2773 21.5277 29.9275 21.5591 29.8384C21.5389 29.8367 21.5186 29.8314 21.4982 29.8314L20.8788 30.05L20.2813 29.6583C20.2813 29.6583 20.0472 29.4448 20.2591 29.2315L20.8381 28.4009L19.3723 26.6555L21.6254 27.5335L21.7749 27.3568L22.079 27.0123L22.4239 27.3236C22.5216 27.4128 22.5769 27.5229 22.6045 27.6331C23.2258 27.8622 24.3377 28.539 24.4354 29.639L24.087 29.7719V29.7807C24.1663 29.8698 24.2326 29.9066 24.2528 29.91L25.8607 30.0605C25.9013 30.0534 25.953 30.036 26.0101 30.0202C26.2092 29.9556 26.5098 29.8629 26.8656 29.8629C27.1551 29.8629 27.4353 29.9258 27.7045 30.0447C27.8041 30.0098 27.9258 29.9835 28.066 29.9748L28.1433 29.9731C29.0044 29.9731 29.4321 30.5833 29.7752 31.0696C29.8323 31.1534 29.8894 31.2339 29.9485 31.3125C30.249 31.7149 30.6417 32.3042 30.6583 32.3287L30.8353 32.591L30.6177 32.8306C30.45 33.0141 30.1992 33.2293 29.7678 33.2293C29.6793 33.2293 29.5816 33.2206 29.4765 33.2012C29.3844 33.1856 29.3013 33.1592 29.2202 33.1278C29.2073 33.2083 29.1907 33.3045 29.174 33.3866L28.892 34.7822C30.579 34.3888 31.6503 33.1803 31.6503 31.4525L31.6522 26.2323Z" fill="#5F5F5F"/>
<path d="M17.4102 26.2323H28.2105C27.6712 25.6343 27.6783 24.8764 27.8166 24.3836C27.659 24.3027 27.5295 24.2048 27.414 24.0996C26.992 24.4343 25.7034 25.4424 25.3673 25.6943L25.2956 25.7471L21.057 24.9233H20.9713C20.8698 24.9233 20.7209 24.9195 20.5581 24.8988C20.5125 25.1039 20.348 25.2449 20.1589 25.2449C20.1379 25.2449 20.1134 25.2431 20.0906 25.2374C19.9803 25.2167 19.8841 25.1564 19.8193 25.0568C19.7528 24.9591 19.7266 24.8424 19.7458 24.7221L19.7615 24.6243C19.3238 24.2933 18.9212 23.5541 19.0997 22.7755L19.1172 22.6929L19.1785 22.6458C19.1873 22.6383 19.2607 22.5857 19.3693 22.5179L19.0612 22.4671C18.9457 22.4446 18.8687 22.3298 18.8862 22.2076C18.9054 22.0835 19.014 21.995 19.1277 22.0195L19.8613 22.1437L19.9278 19.3677L21.0203 18.1265L21.7013 19.6669L20.9817 22.3374L21.6296 22.4465C21.7433 22.4653 21.8221 22.5799 21.8047 22.7059C21.7871 22.8169 21.6996 22.8941 21.5963 22.8941C21.5857 22.8941 21.5735 22.8941 21.563 22.8922L21.036 22.8001C21.0431 22.8169 21.0535 22.8262 21.0606 22.8451C21.1165 22.9693 21.2409 23.0595 21.3144 23.0972L24.5463 23.1517C24.6828 23.0088 25.0225 22.6514 25.3709 22.2734C24.5761 21.9499 24.2871 21.2127 24.2381 20.7237C23.7935 20.5206 23.4871 20.216 23.3173 19.8191C23.1106 19.3283 23.1842 18.8374 23.2384 18.5986C22.8078 18.4293 22.3544 18.121 21.8922 17.6282H17.0251C17.2335 18.2299 17.4102 18.8826 17.4102 19.5314V26.2323Z" fill="#5F5F5F"/>
<path d="M31.5841 37.9164L30.7472 37.5821L30.978 36.6805L31.2325 35.6968C31.2325 35.6968 29.7491 36.5354 27.6597 37.1658C27.0664 37.3434 26.6177 37.4236 26.6177 37.4236V38.0921C26.6177 38.0921 25.5006 38.2947 24.3707 38.2947H24.3578H24.3414H24.3194H24.3066C23.1768 38.2947 22.0596 38.0921 22.0596 38.0921V37.4236C22.0596 37.4236 21.609 37.3434 21.0176 37.1658C18.9281 36.5354 17.4466 35.6968 17.4466 35.6968L17.6974 36.6805L17.9337 37.5821L17.095 37.9164L16.1647 38.2793C17.2324 38.8161 18.7101 39.5994 20.0636 39.9851L19.7449 40.8944C19.7449 40.8944 21.4608 41.7101 24.3194 41.7178V41.7197H24.3286H24.3414H24.3525H24.3597V41.7178C27.222 41.7101 28.936 40.8944 28.936 40.8944L28.6155 39.9851C29.9688 39.5994 31.4505 38.8161 32.5126 38.2793L31.5841 37.9164ZM17.1572 38.3405L18.5343 37.863L18.1278 36.4781C18.7339 36.8372 20.0947 37.3758 20.882 37.6261L20.2174 39.5305C19.0013 39.181 17.9886 38.7741 17.1572 38.3405ZM24.3414 41.2401C22.7426 41.2401 20.9169 40.8562 20.3804 40.6576L21.197 38.352C21.8746 38.5583 23.2847 38.7779 24.3084 38.7702H24.3103H24.3414H24.3688H24.3725C25.3963 38.7779 26.8026 38.5583 27.4839 38.352L28.2987 40.6576C27.7622 40.8581 25.9383 41.2401 24.3414 41.2401ZM28.4617 39.5305L27.7989 37.6261C28.5881 37.3758 29.945 36.8372 30.5531 36.4781L30.1484 37.863L31.5237 38.3405C30.6904 38.7741 29.6831 39.181 28.4617 39.5305Z" fill="#242424"/>
<path d="M24.3369 5.33144C26.0148 5.33144 27.3569 5.86883 28.0985 6.44281C28.0985 6.44281 28.3186 5.1605 29.0709 4.02837L27.7196 4.17659L27.0124 2.72345L25.6539 3.40035L24.3369 2.14075L23.0234 3.40035L21.6632 2.72345L20.9577 4.17659L19.6064 4.02837C20.3587 5.1605 20.5788 6.44281 20.5788 6.44281C21.3221 5.86883 22.6608 5.33144 24.3369 5.33144ZM20.8963 4.68599L21.2716 4.72442L21.434 4.39469L21.9066 3.41778L22.7835 3.85558L23.1227 4.02308L23.3933 3.76495L24.3387 2.8578L25.2859 3.76495L25.5565 4.02308L25.8956 3.85558L26.7671 3.41778L27.2452 4.39469L27.4039 4.72442L27.7791 4.68599L28.1364 4.64411C27.9722 5.00183 27.8513 5.34016 27.7646 5.62113C26.8193 5.11174 25.5889 4.82205 24.3351 4.82205C23.0867 4.82205 21.8579 5.11174 20.9089 5.62113C20.8207 5.34016 20.7015 4.99999 20.5373 4.64411L20.8963 4.68599Z" fill="#242424"/>
<path d="M44.0188 22.3025C46.1569 22.3025 46.8712 20.1341 46.9014 20.0419L47.1396 19.2783L46.338 19.3031H46.3346C46.052 19.3031 43.6936 19.2411 42.0213 17.1222L41.8631 16.9256C40.7702 15.5402 39.7341 14.2239 37.8822 13.6232C37.9355 13.5755 38.012 13.5152 38.1168 13.4479C39.0996 12.803 39.6718 12.0199 39.8158 11.1111C40.0255 9.74336 39.1512 8.65379 39.1121 8.6095L38.5167 7.87607L38.1453 8.74594C38.1204 8.80082 37.4947 10.1934 36.1797 10.1934H36.0819C35.9913 10.188 35.906 10.1845 35.8207 10.1774C35.867 9.55558 35.7531 8.59355 34.8788 7.69175C33.8284 6.60575 32.5382 6.44275 31.863 6.44275C31.5021 6.44275 31.2622 6.48703 31.2373 6.49064L30.3381 6.66774L30.8926 7.39593C31.328 7.95752 31.7225 8.99399 31.255 9.5361C31.1058 9.70794 30.7984 9.84787 30.5034 9.98781C29.8973 10.2659 29.0709 10.6522 29.0709 11.6373C29.0709 12.2751 29.5668 12.9412 30.466 13.5081C33.1283 15.177 34.7703 16.9185 35.4795 18.8407C36.576 21.7977 35.1453 23.4842 33.7556 24.3718L33.1317 24.7722L33.6774 25.2717C33.7502 25.3356 34.4185 25.922 35.4048 26.0071C35.5914 26.0194 35.7709 26.03 35.938 26.03C36.5707 26.03 37.1092 25.9309 37.5463 25.7979C37.4254 26.0088 37.278 26.2232 37.0914 26.4393C36.297 27.3569 35.3195 27.7751 33.9138 27.7964L33.3912 27.8053L33.3504 28.3278C33.345 28.4324 33.306 29.4015 34.2265 30.2253C34.367 30.3528 34.5376 30.4574 34.7153 30.5442C34.0915 31.1041 33.4569 32.0784 33.3345 33.7491C33.2314 35.1434 32.8972 35.659 32.8937 35.6641L32.3161 36.5429L33.3593 36.5572C35.0832 36.5572 36.4036 36.0824 37.3188 35.1434C37.8591 34.587 38.1684 33.9599 38.3515 33.4037C38.6518 33.6587 39.0393 33.8819 39.5438 34.0006C39.7358 34.0449 39.9456 34.0697 40.1713 34.0697C40.6583 34.0697 41.0652 33.9669 41.1114 33.9564L41.7778 33.7792L41.4828 33.1591C41.4615 33.1095 40.9053 31.8658 41.5041 30.0906C41.7618 29.3235 41.8933 28.6361 41.9573 28.1011C42.3767 28.3189 42.9384 28.4997 43.6652 28.5014C45.3144 28.5014 46.0413 27.2737 46.0751 27.2224L46.4003 26.6589L45.7979 26.4109C43.8322 25.5978 43.3969 23.4133 43.3098 22.2299C43.4875 22.2635 43.6901 22.2954 43.9193 22.3025H44.0188ZM45.5774 26.9335C45.5774 26.9335 45.0016 27.931 43.6812 27.931H43.6652C42.0799 27.9221 41.4401 26.9584 41.4401 26.9584C41.4401 26.9584 41.5326 28.2128 40.9604 29.9046C40.2726 31.9438 40.9656 33.4019 40.9656 33.4019C40.9656 33.4019 40.596 33.5011 40.1695 33.5011C40.006 33.5011 39.8354 33.4851 39.6754 33.4425C38.3515 33.129 38.0209 31.9278 38.0209 31.9278C38.0209 31.9278 38.1435 35.9867 33.3966 35.9867H33.3593C33.3593 35.9867 33.7769 35.4197 33.9013 33.788C34.127 30.7763 36.1726 30.3635 36.1726 30.3635C36.1726 30.3635 35.0813 30.2271 34.6086 29.8037C33.8693 29.1357 33.9208 28.3633 33.9208 28.3633C35.5914 28.3403 36.6844 27.7734 37.5178 26.8114C38.4208 25.7696 38.57 24.6482 38.57 24.6482C38.57 24.6482 37.6725 25.4596 35.9363 25.4596C35.7834 25.4596 35.6199 25.4525 35.4528 25.4365C34.6317 25.371 34.063 24.8501 34.063 24.8501C35.8704 23.695 37.1393 21.6789 36.0144 18.6422C35.1134 16.2098 32.9488 14.3922 30.77 13.0227C30.0448 12.5709 29.6414 12.0696 29.6414 11.6373C29.6414 10.6203 31.0916 10.5884 31.687 9.90453C32.3729 9.11086 31.9428 7.82294 31.3475 7.04873C31.3475 7.04873 31.5483 7.00795 31.8646 7.00795C32.492 7.00795 33.5779 7.16559 34.47 8.08684C35.6554 9.30927 35.1631 10.6398 35.1631 10.6398L35.4812 10.7019C35.6714 10.7426 35.8598 10.7497 36.0553 10.7585C36.0979 10.7585 36.1406 10.7603 36.1832 10.7603C37.9053 10.7603 38.6749 8.96556 38.6749 8.96556C38.6749 8.96556 40.5054 11.2103 37.8112 12.9677C37.3473 13.2689 37.1429 13.547 37.1963 13.8447L37.239 14.0396L37.4308 14.0733C39.384 14.6012 40.3721 15.9442 41.5788 17.4712C43.411 19.7939 46.004 19.8683 46.3239 19.8683H46.3577C46.3577 19.8683 45.7658 21.7302 44.0224 21.7302C43.994 21.7302 43.9691 21.7302 43.9389 21.7286C43.1374 21.7001 42.7269 21.3937 42.7269 21.3937C42.7269 21.3937 42.4123 25.6225 45.5774 26.9335Z" fill="#242424"/>
<path d="M40.2039 13.9132C40.989 14.351 41.4455 14.9374 41.846 15.4576C42.2395 15.9652 42.6137 16.4544 43.1977 16.6578C43.4059 16.7329 43.6262 16.7678 43.8501 16.7678C44.7279 16.7678 45.6094 16.2052 45.9434 15.4266L46.2792 14.646L45.466 14.5947C45.4275 14.5929 44.3818 14.4939 43.2171 13.2462C42.7379 12.7352 42.159 12.4657 41.5346 12.4657C40.7722 12.4657 40.2073 12.8651 40.1443 12.9055L39.3959 13.457L40.2039 13.9132ZM41.5364 13.0558C41.9281 13.0558 42.3846 13.1949 42.8166 13.6622C44.1718 15.1041 45.4328 15.1847 45.4328 15.1847C45.2037 15.716 44.5392 16.1832 43.8518 16.1832C43.6927 16.1832 43.5335 16.1576 43.3744 16.1009C42.4423 15.771 42.1082 14.3053 40.4696 13.3928C40.4696 13.3928 40.9279 13.0558 41.5364 13.0558Z" fill="#242424"/>
<path d="M40.5437 21.1624V21.1908C40.0742 17.3424 37.3231 14.5631 34.2624 12.8722C33.979 12.7184 33.7182 12.5877 33.4643 12.4622C34.3963 12.6089 35.8971 12.6265 37.0553 11.6052C37.0553 11.6052 35.2832 12.9304 31.6522 11.7272C32.6574 12.3898 34.6103 13.3245 36.3927 14.8387C40.8499 18.8177 37.6605 22.6996 37.6605 22.6996C39.2621 21.0017 39.3282 19.1818 38.857 17.6958C39.7003 19.1217 40.2394 20.8532 40.1559 22.9877C40.0326 26.0461 38.3787 28.6912 36.6379 30.8168C35.8014 31.8487 35.6137 33.1155 35.6137 33.1155C35.6137 33.1155 35.951 31.9971 36.9196 30.8468C38.7856 28.6277 40.3802 26.3217 40.5889 23C40.782 23.6026 41.5767 25.2793 42.8375 25.9101C42.8409 25.9119 41.2567 24.9419 40.5437 21.1624Z" fill="#242424"/>
<path d="M15.9681 35.666C15.9665 35.6607 15.6517 35.1451 15.5503 33.7507C15.4318 32.08 14.8293 31.1055 14.2337 30.5456C14.4063 30.4606 14.5653 30.3561 14.699 30.2268C15.5739 29.4028 15.5366 28.4338 15.5315 28.3292L15.4977 27.8066L14.9968 27.7977C13.6617 27.7746 12.7292 27.3565 11.9728 26.4404C11.7968 26.2244 11.6547 26.0099 11.5396 25.7991C11.9558 25.9319 12.4652 26.0313 13.0693 26.0313C13.2319 26.0313 13.3994 26.0205 13.5771 26.0082C14.5162 25.9231 15.1525 25.3384 15.2236 25.2729L15.7431 24.7733L15.1491 24.3728C13.8207 23.4834 12.4635 21.7967 13.506 18.8415C14.1811 16.9191 15.7431 15.1774 18.2815 13.5084C19.1378 12.9414 19.6064 12.2754 19.6064 11.6375C19.6064 10.6524 18.8213 10.2644 18.2442 9.98795C17.9633 9.848 17.6706 9.70806 17.5285 9.53621C17.0817 8.99579 17.459 7.95761 17.8719 7.39587L18.4033 6.66774L17.5436 6.49052C17.5183 6.48702 17.2932 6.44275 16.948 6.44275C16.3049 6.44275 15.0798 6.60576 14.0779 7.69183C13.2437 8.59543 13.1338 9.55745 13.176 10.1775C13.0948 10.1846 13.0136 10.1883 12.9289 10.1935H12.8376C11.5819 10.1935 10.988 8.80097 10.9643 8.74598L10.6105 7.87604L10.0386 8.60953C10.0064 8.65393 9.17051 9.74525 9.37355 11.1113C9.50892 12.0201 10.0538 12.8032 10.9896 13.4482C11.0911 13.5156 11.1622 13.5758 11.213 13.6237C9.45141 14.2242 8.4665 15.5425 7.42573 16.9279L7.27511 17.1246C5.68449 19.2436 3.43376 19.3057 3.16469 19.3057L2.39819 19.2809L2.63165 20.0444C2.65874 20.1366 3.33732 22.3052 5.37472 22.3052L5.47293 22.3018C5.68781 22.2946 5.88079 22.2645 6.05342 22.2291C5.9687 23.4107 5.5541 25.5954 3.68081 26.4104L3.10884 26.6585L3.41861 27.2219C3.44902 27.2732 4.14286 28.5011 5.71655 28.5011C6.40365 28.4992 6.93835 28.3185 7.33947 28.1007C7.4004 28.6357 7.52559 29.3231 7.77099 30.0903C8.34131 31.8656 7.80992 33.1094 7.78957 33.159L7.50867 33.7792L8.14501 33.9563C8.18726 33.9669 8.57819 34.0696 9.04013 34.0696C9.25677 34.0696 9.4565 34.0449 9.6359 34.0005C10.1182 33.8818 10.4904 33.6587 10.7729 33.4035C10.9456 33.9597 11.2418 34.587 11.7546 35.1434C12.6276 36.0823 13.8833 36.5572 15.5248 36.5572L16.5199 36.5431L15.9681 35.666ZM15.4875 35.9902C10.9676 35.9902 11.0828 31.9312 11.0828 31.9312C11.0828 31.9312 10.768 33.1324 9.50725 33.446C9.35663 33.4885 9.19583 33.5046 9.03846 33.5046C8.63238 33.5046 8.28203 33.4052 8.28203 33.4052C8.28203 33.4052 8.9386 31.9471 8.28369 29.9079C7.74223 28.2157 7.83027 26.9614 7.83027 26.9614C7.83027 26.9614 7.22269 27.9253 5.71159 27.9341H5.69632C4.43902 27.9341 3.89071 26.9366 3.89071 26.9366C6.90286 25.6273 6.60669 21.3999 6.60669 21.3999C6.60669 21.3999 6.21587 21.7046 5.45092 21.7348C5.42383 21.7365 5.3985 21.7365 5.3714 21.7365C3.70957 21.7365 3.14777 19.8744 3.14777 19.8744H3.18161C3.48795 19.8744 5.95355 19.7999 7.69822 17.4772C8.84725 15.95 9.7898 14.6087 11.6462 14.079L11.8323 14.0454L11.873 13.8504C11.9238 13.5527 11.7308 13.2746 11.2892 12.9734C8.72372 11.2141 10.4667 8.97097 10.4667 8.97097C10.4667 8.97097 11.1961 10.7641 12.8392 10.7641C12.8798 10.7641 12.9171 10.7622 12.9594 10.7622C13.1438 10.7516 13.3266 10.7445 13.506 10.7038L13.8089 10.6418C13.8089 10.6418 13.3401 9.3112 14.4705 8.08869C15.3201 7.16563 16.354 7.00973 16.9496 7.00973C17.2526 7.00973 17.4404 7.0504 17.4404 7.0504C16.8753 7.82641 16.4657 9.11277 17.1188 9.90652C17.6841 10.5886 19.0633 10.6223 19.0633 11.6393C19.0633 12.0698 18.6792 12.573 17.9888 13.0248C15.9123 14.3944 13.8512 16.2121 12.9949 18.6448C11.9255 21.6816 13.132 23.696 14.8564 24.853C14.8564 24.853 14.3149 25.3738 13.5314 25.4395C13.3723 25.4555 13.2183 25.4625 13.0693 25.4625C11.4177 25.4625 10.5632 24.6509 10.5632 24.6509C10.5632 24.6509 10.7053 25.7726 11.5599 26.8144C12.3586 27.7763 13.3994 28.3433 14.9901 28.3664C14.9901 28.3664 15.0409 29.139 14.3369 29.8068C13.8851 30.2285 12.8459 30.3666 12.8459 30.3666C12.8459 30.3666 14.7955 30.7795 15.0087 33.7915C15.1254 35.4232 15.5197 35.9902 15.5197 35.9902H15.4875Z" fill="#242424"/>
<path d="M5.1277 16.7678C5.38157 16.7678 5.62952 16.7328 5.86358 16.6576C6.52487 16.4542 6.944 15.9648 7.38678 15.4571C7.83947 14.9365 8.34914 14.35 9.23265 13.9119L10.1419 13.4573L9.2976 12.9055C9.22674 12.8634 8.5931 12.4657 7.7371 12.4657C7.03261 12.4657 6.37929 12.7333 5.84198 13.2464C4.53136 14.4929 3.35655 14.5937 3.31321 14.5956L2.39819 14.645L2.7741 15.4277C3.15181 16.203 4.14169 16.7678 5.1277 16.7678ZM6.29261 13.6608C6.78066 13.1933 7.29432 13.054 7.7371 13.054C8.41794 13.054 8.93351 13.3912 8.93351 13.3912C7.09163 14.3059 6.71379 15.7706 5.66091 16.1005C5.4878 16.1573 5.30673 16.183 5.1277 16.183C4.35427 16.183 3.60644 15.7174 3.35064 15.184C3.35064 15.1822 4.76748 15.1014 6.29261 13.6608Z" fill="#242424"/>
<path d="M8.72956 22.9886C8.63594 20.8539 9.21655 19.1222 10.1266 17.6962C9.6191 19.1823 9.68843 21.0024 11.4152 22.7006C11.4152 22.7006 7.98042 18.8184 12.7822 14.839C14.7037 13.3246 16.805 12.3897 17.8856 11.7271C13.9771 12.9305 12.0687 11.6052 12.0687 11.6052C13.3159 12.6266 14.9322 12.609 15.9361 12.4606C15.6645 12.5859 15.3798 12.7167 15.0782 12.8704C11.7785 14.5615 8.81756 17.3411 8.31001 21.1897V21.1597C7.54411 24.9394 5.83984 25.9095 5.83984 25.9095C7.19579 25.2786 8.04982 23.6035 8.25763 22.9992C8.4843 26.3213 10.2015 28.6272 12.211 30.8467C13.2542 31.9969 13.6213 33.1155 13.6213 33.1155C13.6213 33.1155 13.4172 31.8485 12.5126 30.8165C10.6417 28.6944 8.86064 26.0473 8.72956 22.9886Z" fill="#242424"/>
<path d="M23.048 15.0469V15.8729C23.3536 15.5268 23.944 15.5976 23.944 15.5976V16.7888C23.944 16.7888 23.9235 17.3739 23.7 17.6281H24.3397H24.9773C24.758 17.3758 24.7353 16.7888 24.7353 16.7888V15.5976C24.7353 15.5976 25.3258 15.5268 25.6293 15.8729V15.0469H24.3397H23.048Z" fill="#242424"/>
<path d="M22.9774 11.0684C23.4453 11.4489 23.7157 11.5114 23.7251 11.5187L23.9084 11.6052V10.6256L22.1876 9.8844C22.1876 9.88679 22.204 10.4523 22.9774 11.0684Z" fill="#242424"/>
<path d="M26.0936 11.0684C26.4827 10.4523 26.4897 9.8844 26.4897 9.8844L25.6293 10.6256V11.6052L25.7197 11.5187C25.7257 11.5114 25.8596 11.4489 26.0936 11.0684Z" fill="#242424"/>
<path d="M28.6538 7.64444C28.6538 6.55887 26.8098 5.5824 24.7741 5.5824H24.7723H24.7671H24.7617C22.726 5.5824 20.882 6.55887 20.882 7.64444L20.9229 7.91185L21.7356 12.5374L20.9194 13.0072L18.8073 14.23H18.8145C18.8145 14.23 18.3388 14.471 18.1187 14.6206C17.3148 15.1749 17.1444 15.9824 17.6111 16.3167C17.7265 15.6587 18.2518 14.969 19.235 14.969C19.9432 14.969 20.4827 15.3314 20.9194 15.8751C21.0311 16.0123 21.1376 16.1584 21.237 16.3167C21.3594 16.5154 21.4819 16.6898 21.6044 16.8587H16.1647C16.564 17.6557 16.9438 18.5002 16.9438 19.4169V31.3529C16.9438 34.2419 19.1854 35.6213 21.6097 35.6213C23.4839 35.6213 23.736 35.5368 24.7707 36.5572C25.8 35.5351 26.052 35.6213 27.928 35.6213C30.354 35.6213 32.5921 34.2419 32.5921 31.3529V19.4169C32.5921 18.5002 32.9719 17.6557 33.373 16.8587H27.9315C28.0522 16.6914 28.1746 16.5154 28.297 16.3167C28.3982 16.1584 28.5029 16.0123 28.613 15.8751C29.0531 15.3297 29.5908 14.969 30.299 14.969C31.2822 14.969 31.8058 15.6569 31.9229 16.3167C32.3898 15.9824 32.2211 15.1749 31.4118 14.6206C31.1953 14.471 30.7195 14.23 30.7195 14.23H30.7267L28.6147 13.0072L27.8019 12.5374L28.6147 7.91185L28.6538 7.64444ZM21.6824 8.18283L24.5399 9.14345V13.5931L22.4368 12.4935L21.6824 8.18283ZM22.2735 17.6345C22.7421 18.0972 23.2017 18.384 23.6382 18.5423C23.5814 18.7659 23.507 19.2269 23.7182 19.686C23.8903 20.0555 24.2027 20.3406 24.6516 20.5306C24.7014 20.9881 24.9924 21.6759 25.8 21.9804C25.4468 22.334 25.1024 22.6665 24.9622 22.802L21.6877 22.751C21.6133 22.7139 21.4872 22.6313 21.4305 22.5135C21.4233 22.4976 21.4127 22.4888 21.4075 22.4712L21.9415 22.5574C21.9541 22.5591 21.9646 22.5591 21.9753 22.5591C22.0783 22.5591 22.1687 22.4888 22.1865 22.3832C22.2042 22.2654 22.1244 22.158 22.0091 22.1404L21.3524 22.0383L22.0818 19.5417L21.3914 18.1007L20.284 19.2621L20.2165 21.8589L19.4729 21.7428C19.3575 21.7199 19.2475 21.8044 19.228 21.9187C19.2102 22.0332 19.2883 22.1404 19.4054 22.1616L19.7178 22.209C19.606 22.2724 19.5333 22.3216 19.5243 22.3286L19.4604 22.3726L19.4427 22.4502C19.2617 23.1786 19.6716 23.87 20.1136 24.1796L20.0976 24.2711C20.0799 24.3838 20.1047 24.4928 20.1722 24.5843C20.236 24.6776 20.3354 24.7339 20.4454 24.7532C20.4686 24.7567 20.4933 24.7584 20.5147 24.7584C20.7063 24.7584 20.8732 24.6265 20.9211 24.4348C21.0861 24.4541 21.237 24.4576 21.3399 24.4576H21.4269L25.7237 25.2265L25.7964 25.179C26.1389 24.9414 27.4434 23.9985 27.8711 23.6869C27.9882 23.7873 28.1195 23.8788 28.2793 23.9544C28.1409 24.4153 28.132 25.1244 28.6804 25.684H17.7301V19.4186C17.7301 18.8116 17.5508 18.2011 17.3396 17.6381H22.2735V17.6345ZM27.5836 23.3668C27.1488 23.6835 26.0307 24.4928 25.626 24.7743L21.7215 24.0793C21.7305 24.0442 21.7392 24.0107 21.7482 23.9755C21.7996 23.7749 21.8511 23.5004 21.8547 23.1786L25.1362 23.2313L25.1983 23.1679C25.248 23.1187 26.2881 22.1228 26.8187 21.5492C26.9447 21.7058 27.1026 21.8554 27.3085 21.9873C27.2375 22.3674 27.2677 22.9093 27.5836 23.3668ZM21.0471 22.6964C21.1394 22.8882 21.3061 23.0167 21.4216 23.0888C21.418 23.2682 21.4003 23.548 21.3524 23.7943C21.3417 23.8488 21.3275 23.8998 21.3115 23.9509C21.3027 23.9826 21.2938 24.009 21.2867 24.0301C21.1146 24.0301 20.7755 24.009 20.4987 23.9087C20.1917 23.7961 19.7338 23.2383 19.8402 22.6243C19.9734 22.5433 20.2804 22.3726 20.568 22.3726C20.7898 22.3709 20.9406 22.4747 21.0471 22.6964ZM20.6407 21.9241L20.7063 19.4309L21.2707 18.838L21.6257 19.5734L20.9264 21.9662L20.6407 21.9241ZM27.5481 34.8489C27.3351 34.8489 27.1381 34.8524 26.9606 34.8595L27.4257 33.4255C27.4985 33.2266 27.131 32.9715 26.9801 32.7481C27.2091 32.8907 27.8019 33.202 28.0877 33.327C28.0575 33.3727 27.5481 34.8489 27.5481 34.8489ZM29.0069 33.2196L28.7035 34.7891C28.5101 34.8154 28.3042 34.8294 28.093 34.8383L28.4124 33.3288C28.5082 32.88 27.2926 32.741 26.6927 31.8596C26.3998 32.1868 25.8479 32.2837 25.2942 32.2837C24.7884 32.2837 24.2826 32.2026 23.9754 32.1429C23.8974 32.1306 23.8228 32.1218 23.7501 32.1218C23.5726 32.1218 23.411 32.1763 23.2993 32.3628L23.2105 32.5106L21.5547 32.1235L21.143 32.7991C21.0844 32.9083 21.0808 33.0015 21.1749 33.1034L21.2867 33.225C21.2104 33.4642 20.8661 33.8249 20.8661 33.8249L20.6195 33.5204C20.4241 33.3041 20.4561 32.91 20.6602 32.544L21.3168 31.4443L22.719 31.6449L22.5007 31.1523C22.2078 30.5013 22.6533 29.6726 22.7012 29.1957C22.6852 29.3401 22.5521 29.3717 22.3959 29.3717C22.254 29.3717 22.096 29.3453 21.9913 29.3453C21.9505 29.3453 21.9149 29.3488 21.8955 29.3629L21.5156 29.5917L21.2157 29.3295C21.1802 29.2784 21.1678 29.1606 21.2565 29.0726L21.9505 28.302L21.1306 27.3537L22.2788 27.9255L22.6284 27.505C22.7244 27.5983 22.6835 27.8428 22.6835 27.8428C23.042 27.8515 24.0464 28.4023 24.0998 29.6867C24.1033 29.7253 24.1033 29.7694 24.1033 29.8115C24.1033 29.8115 24.1122 29.8274 24.1299 29.8538C24.2009 29.9506 24.3961 30.1987 24.6445 30.2215L26.2312 30.3764H26.2382C26.4123 30.3764 26.7584 30.1741 27.202 30.1741C27.4434 30.1741 27.7131 30.2356 28.0007 30.4151C28.0007 30.4151 28.1444 30.3024 28.3787 30.2901C28.3964 30.2884 28.416 30.2884 28.4338 30.2884C29.1455 30.2884 29.44 30.9254 29.8216 31.4549C30.1092 31.8578 30.4925 32.4561 30.4925 32.4561C30.3505 32.6231 30.2191 32.7147 29.9991 32.7147C29.9388 32.7147 29.8695 32.7093 29.795 32.6953C29.0318 32.5563 28.9219 31.001 28.487 30.8778C28.4639 30.8708 28.4391 30.869 28.4178 30.869C28.2775 30.869 28.2155 30.9922 28.2155 30.9922C28.4141 31.5217 28.2988 31.7364 28.5118 32.1446C28.6715 32.4472 28.9554 32.6971 29.0726 32.815C29.0726 32.8185 29.0407 33.0472 29.0069 33.2196ZM20.4863 31.7346L20.559 31.9159C20.5111 32.0742 19.961 32.2994 19.961 32.2994L19.842 32.0425C19.716 31.768 19.7426 31.3054 20.126 31.0221L21.0169 30.4837L21.9612 30.6824C21.9434 30.9798 22.1226 31.2016 22.1226 31.2016L21.1323 31.0133L20.5395 31.4197C20.4401 31.4883 20.433 31.6168 20.4863 31.7346ZM29.1561 34.7029L29.4277 33.2987C29.4418 33.2161 29.4595 33.1193 29.472 33.0384C29.5483 33.0702 29.6299 33.0965 29.7186 33.1123C29.8198 33.1317 29.9138 33.1404 29.9991 33.1404C30.4144 33.1404 30.6558 32.924 30.8173 32.7393L31.0267 32.4982L30.8563 32.2344C30.8403 32.208 30.4641 31.6168 30.173 31.2121C30.1162 31.1329 30.0611 31.0537 30.0062 30.9675C29.6761 30.4783 29.2626 29.8644 28.4338 29.8644L28.3592 29.8662C28.2225 29.8749 28.1054 29.9013 28.0114 29.9365C27.7504 29.8151 27.4824 29.7536 27.2037 29.7536C26.8613 29.7536 26.5719 29.8468 26.3803 29.9119C26.3253 29.9277 26.2756 29.9453 26.2366 29.9524L24.6871 29.801C24.6677 29.7976 24.6037 29.7606 24.5274 29.6691V29.662L24.8628 29.5283C24.7688 28.4217 23.6968 27.7407 23.0988 27.5102C23.0722 27.3993 23.0189 27.2885 22.9249 27.1989L22.5912 26.8856L22.2983 27.234L22.1546 27.4118L19.9858 26.5284L21.3968 28.2844L20.8395 29.1201C20.6353 29.3348 20.8608 29.5495 20.8608 29.5495L21.4357 29.9418L22.0321 29.7219C22.0534 29.7219 22.0712 29.7272 22.0906 29.7289C22.0623 29.8186 22.025 30.1705 22.0001 30.269L20.9654 30.0667L19.8775 30.6755C19.3184 31.0819 19.2421 31.7558 19.4498 32.2168L19.5705 32.4788L19.7426 32.8484L20.1224 32.6917C20.1278 32.69 20.1331 32.6882 20.1365 32.6848C20 33.1176 20.055 33.5292 20.2999 33.8003L20.5306 34.0888L20.8377 34.4741L21.1749 34.1152C21.2743 34.0166 21.5955 33.6596 21.6949 33.3533L21.7677 33.1192L21.6026 32.9398L21.576 32.9083L21.7606 32.6055L23.1111 32.9205L23.4146 32.9891L23.5761 32.7252L23.6649 32.5809C23.6809 32.551 23.6861 32.5457 23.7483 32.5457C23.7962 32.5457 23.8441 32.551 23.8956 32.5616C24.4049 32.6566 24.8752 32.7042 25.2923 32.7042C25.697 32.7042 25.9383 32.6882 26.2276 32.5933C26.2276 32.5933 26.9535 33.4096 26.9784 33.4413L26.5347 34.7996L26.5152 34.8823C25.6739 34.9491 25.264 35.1322 24.7688 35.623C24.05 34.9156 23.5406 34.8419 21.608 34.8419C19.2954 34.8419 17.7283 33.4977 17.7283 31.3511V26.1027H31.8058L31.8094 31.3511C31.8111 33.0929 30.78 34.3069 29.1561 34.7029ZM32.1998 17.6345C31.9851 18.1975 31.8058 18.8081 31.8058 19.4151L31.8077 23.3316C30.9823 23.1944 30.8847 22.3128 30.8811 22.2742L30.8652 22.0947L30.6877 22.0789C30.3292 22.0454 30.0914 21.894 29.8908 21.7006C29.4862 21.2995 29.4843 20.6484 29.4862 20.6431C29.4809 20.6765 29.0407 21.287 29.5519 21.9539C29.7665 22.2354 30.0772 22.4079 30.4801 22.4765C30.5741 22.9656 30.9415 23.6552 31.8077 23.7609V25.6787H29.3726C28.2491 25.0594 28.7247 23.9685 28.7478 23.9228L28.8437 23.7151L28.6289 23.6342C27.4132 23.1873 27.7469 21.9838 27.7646 21.9328L27.8143 21.7568L27.6493 21.6795C26.6447 21.2184 26.7814 19.9746 26.7939 19.9236C26.485 20.1716 26.3732 20.6783 26.5862 21.1745C26.4708 21.3047 26.3165 21.463 26.1478 21.6354C25.1078 21.3734 25.0759 20.425 25.0759 20.3811L25.074 20.2349L24.9374 20.1822C24.531 20.0326 24.2523 19.8092 24.1156 19.5082C23.9613 19.1759 24.0162 18.8275 24.059 18.6602C24.1778 18.6867 24.2967 18.7061 24.4103 18.7148C24.5274 18.7271 24.6481 18.7342 24.7688 18.7342H24.7759H24.7848C24.9055 18.7342 25.0244 18.7271 25.1415 18.7148C25.7893 18.6515 26.5152 18.3753 27.2713 17.6327H32.1998V17.6345ZM28.4053 13.6757L29.3672 14.23H29.3814L29.6228 14.369C29.0798 14.5185 28.6645 14.7877 28.3167 15.1414C28.3042 15.152 28.2918 15.1661 28.2793 15.1783C28.1995 15.2628 28.1195 15.3543 28.0451 15.4476C28.0309 15.4652 28.0166 15.4845 28.0007 15.5039C27.9261 15.5988 27.857 15.6957 27.7894 15.7977C27.7788 15.8153 27.7664 15.8329 27.754 15.8487C27.6741 15.9666 27.5979 16.0933 27.5215 16.2234C26.8364 17.3935 25.7431 18.092 24.7707 18.0937C23.7998 18.092 22.7065 17.3935 22.0214 16.2234C21.9469 16.0967 21.8724 15.9736 21.7925 15.8539C21.7765 15.8311 21.7623 15.8082 21.7482 15.7888C21.6807 15.6921 21.6133 15.5971 21.544 15.5075C21.5263 15.4828 21.5103 15.4633 21.4926 15.4423C21.418 15.3525 21.3417 15.2628 21.2654 15.1801C21.2495 15.1678 21.2388 15.152 21.2228 15.1379C20.8732 14.7842 20.4596 14.5168 19.9148 14.369L20.1597 14.23H20.1703L21.1323 13.6757L22.1208 13.1146L24.7617 14.5396L24.7671 14.5344L24.7741 14.5396L27.415 13.1146L28.4053 13.6757ZM27.1026 12.4951L24.9978 13.5948V9.14345L27.8534 8.18283L27.1026 12.4951ZM24.7688 8.65435L21.6381 7.42806C21.9043 6.80347 23.1324 6.27202 24.7688 6.27028C26.4069 6.27202 27.6351 6.80347 27.8995 7.42806L24.7688 8.65435Z" fill="#242424"/>
</svg>
