<svg width="44" height="43" viewBox="0 0 44 43" fill="none" xmlns="http://www.w3.org/2000/svg">
<path d="M21.8107 0.419922C25.167 0.419922 28.3603 1.18514 31.2258 2.55398C31.6752 2.75574 32.1276 2.99722 32.5755 3.23891L30.6106 4.9709L27.6651 1.95057L22.5895 6.37988L19.6006 3.19815L10.2674 11.4538L16.2428 17.9372L13.9101 19.9502L19.8055 26.4337L17.4725 28.4459L25.9055 37.6678L30.8966 33.1574L35.2376 37.9911C34.3773 38.6354 33.4358 39.2811 32.4137 39.8439C29.3021 41.5753 25.6993 42.5801 21.852 42.5801C10.0209 42.5801 0.402846 33.1187 0.402846 21.4819C0.361065 9.92373 9.98086 0.419922 21.8107 0.419922ZM17.8803 20.1924L22.9973 15.6819L27.5829 20.7155L22.4649 25.2255L17.8803 20.1924ZM21.5245 28.8908L26.5999 24.3404L31.2258 29.3736L26.1086 33.8842L21.5245 28.8908ZM14.2393 11.6154L19.3548 7.10496L23.9394 12.1385L18.8222 16.6487L14.2393 11.6154ZM23.6114 9.19844L27.4186 5.816L30.8579 9.5612L27.0507 12.9836L23.6114 9.19844ZM30.4073 24.7021L34.2132 21.3195L37.6523 25.1038L33.8449 28.4885L30.4073 24.7021ZM33.7634 32.3138L37.5708 28.9305L41.0072 32.6755L37.2013 36.0975L33.7634 32.3138ZM35.3192 14.9167L37.8567 12.6614L40.1483 15.159L37.6111 17.4135L35.3192 14.9167ZM32.0444 7.46686L34.5821 5.17202L36.8754 7.70855L34.3357 9.96366L32.0444 7.46686ZM38.5526 22.3672L41.0902 20.1121L43.4233 22.6089L40.8454 24.8634L38.5526 22.3672ZM27.1322 16.7696L30.9397 13.3869L34.3773 17.1313L30.5716 20.5145L27.1322 16.7696Z" fill="#8C8C8C"/>
</svg>
