<svg width="62" height="43" viewBox="0 0 62 43" fill="none" xmlns="http://www.w3.org/2000/svg">
<path d="M39.7747 0.419922C27.7738 0.419922 18.2665 9.81906 18.2665 21.3407C18.2665 32.8622 27.9295 42.2614 39.7747 42.2614C51.6199 42.2614 61.2829 32.8622 61.2829 21.3407C61.4388 9.81906 51.6199 0.419922 39.7747 0.419922ZM39.7747 29.0722C35.4107 29.0722 31.6702 25.5854 31.6702 21.3407C31.6702 17.0958 35.2548 13.609 39.7747 13.609C44.2946 13.609 47.8793 17.0958 47.8793 21.3407C47.7234 25.5854 44.2946 29.0722 39.7747 29.0722Z" fill="#828282"/>
<path d="M18.2661 6.63562V37.1071H10.629L0.810059 6.63562H18.2661Z" fill="#828282"/>
</svg>
