<svg width="213" height="27" viewBox="0 0 213 27" fill="none" xmlns="http://www.w3.org/2000/svg">
<path d="M188 26H193.084V9.14377L200.593 17.1965L207.963 9.16652V26H213V1H208.173L200.547 9.68972L192.827 1H188V26Z" fill="#FEFEFE"/>
<path d="M171.489 26C174.58 26 177.12 24.9649 179.063 22.9172C181.006 20.8695 182 18.1917 182 14.9289V1H177.208V14.9964C177.208 17.1116 176.634 18.6643 175.464 19.7669C174.448 20.7345 173.123 21.1845 171.489 21.1845C169.833 21.1845 168.552 20.7345 167.558 19.7669C166.41 18.6193 165.814 17.0891 165.814 14.9964V1H161V14.9289C161 18.1917 161.994 20.9145 163.937 22.9172C165.924 24.9649 168.464 26 171.489 26Z" fill="#FEFEFE"/>
<path d="M134 26H138.994V17.333H145.046L150.086 26H156L150.155 16.3776C150.362 16.3094 150.569 16.2411 150.822 16.1274C153.607 14.9217 155.079 12.5332 155.079 9.23476C155.079 6.73248 154.251 4.70792 152.594 3.20655C150.96 1.75068 148.797 1 146.174 1H134V26ZM138.994 12.5105V5.77707H145.828C147.209 5.77707 148.245 6.11829 149.027 6.77798C149.741 7.36943 150.086 8.16561 150.086 9.23476C150.086 9.9172 149.948 10.4631 149.741 10.8499C149.027 11.9645 147.715 12.5105 145.69 12.5105H138.994Z" fill="#FEFEFE"/>
<path d="M115.999 26H120.978V5.82257H126.902L129 1H110.098L108 5.82257H115.999V26Z" fill="#FEFEFE"/>
<path d="M83 26H87.9751V9.3485L100.207 26H105V1H100.025V17.5833L87.7697 1H83V26Z" fill="#FEFEFE"/>
<path d="M58 26H75.8256L78 21.1547H63.2091V15.9227H73.9379V11.0546H63.2091V5.82257H75.8256L78 1H58V26Z" fill="#FEFEFE"/>
<path d="M41.4791 26C44.3067 26 46.7838 25.2128 48.8871 23.7542C50.7566 22.4577 52.112 20.6518 53 18.4755L48.4664 16.415H48.4197L48.1159 17.1558C47.6251 18.3829 46.8306 19.309 45.779 20.0036C44.6806 20.7213 43.5122 21.0454 42.0867 21.0454C39.3992 21.0454 37.4129 20.3045 36.0341 18.7533C34.7488 17.2716 34.0944 15.3963 34.0944 12.9884C34.0944 10.6037 34.7254 8.70525 36.0341 7.22351C36.665 6.52894 37.483 5.97329 38.4177 5.55655C39.3525 5.1398 40.5677 4.93143 42.0867 4.93143C43.5122 4.93143 44.6806 5.27872 45.779 6.01959C46.8306 6.69101 47.5784 7.64025 48.1159 8.84417L48.4197 9.56189H48.4664L53 7.52449C52.112 5.32502 50.7566 3.51915 48.8871 2.24577C46.7605 0.787177 44.3067 0 41.4791 0C37.7167 0 34.6553 1.27337 32.3184 3.84328C30.1217 6.25111 29 9.33037 29 12.9884C29 16.6465 30.1217 19.7257 32.3184 22.1799C34.6086 24.7729 37.7167 26 41.4791 26Z" fill="#FEFEFE"/>
<path d="M4.01436 27L6.58169 24.4572C8.47217 25.4512 10.6194 25.9598 13 25.9598C16.781 25.9598 19.9551 24.6884 22.4291 22.1687C24.833 19.7646 26 16.6207 26 12.9914C26 9.33904 24.7864 6.24144 22.3824 3.7911C19.9551 1.2714 16.781 0 13 0C9.19569 0 6.02154 1.2714 3.59425 3.7911C1.19031 6.24144 0 9.33904 0 12.9914C0 16.1353 0.910233 18.9092 2.70736 21.1747L0.420108 23.4401L4.01436 27ZM13 21.036C12.0898 21.036 11.2029 20.8973 10.4093 20.6892L13.2334 17.869L9.63914 14.3091L6.30162 17.6147C5.4614 16.3433 5.04129 14.7945 5.04129 12.9914C5.04129 10.6104 5.74147 8.7149 7.16517 7.23545C8.68223 5.68664 10.5494 4.9238 13 4.9238C15.4273 4.9238 17.3411 5.68664 18.8115 7.23545C20.2352 8.7149 20.9354 10.6104 20.9354 12.9914C20.9354 15.3493 20.2352 17.2449 18.8115 18.7243C17.3411 20.2731 15.4273 21.036 13 21.036Z" fill="#FEFEFE"/>
</svg>
