<svg width="20" height="14" viewBox="0 0 20 14" fill="none" xmlns="http://www.w3.org/2000/svg">
<path d="M19.2131 4.23103C19.2162 4.28606 19.2121 4.34206 19.1983 4.39768L17.9646 9.33226C17.9024 9.58086 17.6796 9.75566 17.4235 9.75701L10.0216 9.79439C10.0206 9.79439 10.0197 9.79439 10.0188 9.79439H2.61682C2.35933 9.79439 2.13495 9.61899 2.07275 9.36912L0.839103 4.41585C0.824897 4.35873 0.820785 4.30116 0.824374 4.24471C0.34714 4.09436 0 3.64778 0 3.1215C0 2.47215 0.528224 1.94393 1.17757 1.94393C1.82692 1.94393 2.35514 2.47215 2.35514 3.1215C2.35514 3.48718 2.18759 3.81435 1.92523 4.0305L3.46976 5.58669C3.86011 5.98004 4.40179 6.20553 4.95596 6.20553C5.61122 6.20553 6.23596 5.89435 6.62938 5.37301L9.1677 2.00972C8.95447 1.79664 8.82243 1.50221 8.82243 1.17757C8.82243 0.528224 9.35065 0 10 0C10.6493 0 11.1776 0.528224 11.1776 1.17757C11.1776 1.49249 11.0526 1.77832 10.8505 1.98983C10.8511 1.99073 10.852 1.99148 10.8526 1.99245L13.3726 5.36501C13.7658 5.89136 14.3928 6.20561 15.0499 6.20561C15.6092 6.20561 16.1351 5.98781 16.5305 5.5923L18.0848 4.03806C17.8169 3.82198 17.6449 3.49166 17.6449 3.1215C17.6449 2.47215 18.1731 1.94393 18.8224 1.94393C19.4718 1.94393 20 2.47215 20 3.1215C20 3.63372 19.6707 4.06938 19.2131 4.23103ZM17.8443 11.5514C17.8443 11.2417 17.5932 10.9907 17.2835 10.9907H2.77884C2.46916 10.9907 2.21809 11.2417 2.21809 11.5514V12.8972C2.21809 13.2069 2.46916 13.4579 2.77884 13.4579H17.2835C17.5932 13.4579 17.8443 13.2069 17.8443 12.8972V11.5514Z" fill="white"/>
</svg>
