<svg width="13" height="17" viewBox="0 0 13 17" fill="none" xmlns="http://www.w3.org/2000/svg">
<path d="M7.61725 0.891296C4.21211 2.85327 4.62132 8.3811 4.62132 8.3811C4.62132 8.3811 3.12337 7.88177 3.12337 5.63485C1.3362 6.67115 0.127441 8.663 0.127441 10.8777C0.127441 14.1869 2.81008 16.8696 6.1193 16.8696C9.42851 16.8696 12.1112 14.1869 12.1112 10.8777C12.1111 6.00934 7.61725 5.01068 7.61725 0.891296V0.891296ZM6.64561 14.805C5.44157 15.1051 4.22209 14.3724 3.92183 13.1683C3.62164 11.9643 4.35434 10.7447 5.55845 10.4445C8.46539 9.71977 8.8297 8.08508 8.8297 8.08508C8.8297 8.08508 10.2793 13.8989 6.64561 14.805Z" fill="white"/>
</svg>
