<svg width="454" height="205" viewBox="0 0 454 205" fill="none" xmlns="http://www.w3.org/2000/svg">
<path d="M131.511 12.0585H88.0231L0 120.322L14.1466 138.853V160.754H88.0231V192.941H131.511V160.754H163.209V120.322H131.511V12.0585ZM88.0231 65.2592V120.322H43.4876L88.0231 65.2592Z" fill="#03FFA4"/>
<path d="M131.511 12.0585H88.0231L0 120.322L14.1466 138.853V160.754H88.0231V192.941H131.511V160.754H163.209V120.322H131.511V12.0585ZM88.0231 65.2592V120.322H43.4876L88.0231 65.2592Z" fill="url(#paint0_linear)"/>
<path d="M422.302 12.0585H378.814L290.791 120.322L304.938 138.853V160.754H378.814V192.941H422.302V160.754H454V120.322H422.302V12.0585ZM378.814 65.2592V120.322H334.279L378.814 65.2592Z" fill="#03FFA4"/>
<path d="M422.302 12.0585H378.814L290.791 120.322L304.938 138.853V160.754H378.814V192.941H422.302V160.754H454V120.322H422.302V12.0585ZM378.814 65.2592V120.322H334.279L378.814 65.2592Z" fill="url(#paint1_linear)"/>
<path d="M315.329 102.5C315.329 155.435 282.321 196.133 230.45 196.133C177.793 196.133 145.309 155.435 145.309 102.5C145.309 49.0333 177.793 8.86676 230.45 8.86676C282.059 8.86676 315.329 49.0333 315.329 102.5ZM271.842 102.5C221.804 87.4265 250.098 49.0333 230.45 49.0333C210.802 49.0333 188.796 66.8555 188.796 102.5C235.776 105.16 210.802 155.967 230.45 155.967C250.098 155.967 271.842 138.41 271.842 102.5Z" fill="#03FFA4"/>
<path d="M315.329 102.5C315.329 155.435 282.321 196.133 230.45 196.133C177.793 196.133 145.309 155.435 145.309 102.5C145.309 49.0333 177.793 8.86676 230.45 8.86676C282.059 8.86676 315.329 49.0333 315.329 102.5ZM271.842 102.5C221.804 87.4265 250.098 49.0333 230.45 49.0333C210.802 49.0333 188.796 66.8555 188.796 102.5C235.776 105.16 210.802 155.967 230.45 155.967C250.098 155.967 271.842 138.41 271.842 102.5Z" fill="url(#paint2_linear)"/>
<path fill-rule="evenodd" clip-rule="evenodd" d="M298.861 175.066C282.41 193.811 258.788 205 230.45 205C201.751 205 178.048 193.834 161.607 175.059C145.261 156.391 136.576 130.776 136.576 102.5C136.576 73.9752 145.252 48.3455 161.619 29.7287C178.078 11.0058 201.787 0 230.45 0C258.63 0 282.25 11.0351 298.745 29.7141C315.158 48.3018 324.062 73.9212 324.062 102.5C324.062 130.812 315.225 156.419 298.861 175.066ZM263.109 102.5C263.109 70.8434 244.426 57.9001 230.45 57.9001C216.41 57.9001 197.529 70.9156 197.529 102.5C197.529 134.318 216.381 147.1 230.45 147.1C244.455 147.1 263.109 134.39 263.109 102.5ZM230.45 196.133C282.321 196.133 315.329 155.435 315.329 102.5C315.329 49.0333 282.059 8.86678 230.45 8.86678C177.793 8.86678 145.309 49.0333 145.309 102.5C145.309 155.435 177.793 196.133 230.45 196.133ZM230.45 49.0333C250.098 49.0333 271.842 66.8555 271.842 102.5C271.842 138.41 250.098 155.967 230.45 155.967C210.802 155.967 188.796 138.41 188.796 102.5C188.796 66.8555 210.802 49.0333 230.45 49.0333Z" fill="#222222"/>
<defs>
<linearGradient id="paint0_linear" x1="0" y1="99.9156" x2="163.209" y2="99.9156" gradientUnits="userSpaceOnUse">
<stop stop-color="#9C6D41"/>
<stop offset="1" stop-color="#DCAD68"/>
</linearGradient>
<linearGradient id="paint1_linear" x1="290.791" y1="99.9156" x2="454" y2="99.9156" gradientUnits="userSpaceOnUse">
<stop stop-color="#9C6D41"/>
<stop offset="1" stop-color="#DCAD68"/>
</linearGradient>
<linearGradient id="paint2_linear" x1="145.309" y1="99.8248" x2="315.329" y2="99.8248" gradientUnits="userSpaceOnUse">
<stop stop-color="#9C6D41"/>
<stop offset="1" stop-color="#DCAD68"/>
</linearGradient>
</defs>
</svg>
