<svg width="11" height="15" viewBox="0 0 11 15" fill="none" xmlns="http://www.w3.org/2000/svg">
<path d="M9.67687 7.81108C9.20504 7.21908 8.6718 6.92323 8.07677 6.92323V2.30776C8.38922 2.30776 8.65992 2.19359 8.88798 1.96525C9.11651 1.73688 9.2308 1.46633 9.2308 1.15391C9.2308 0.841334 9.11651 0.57094 8.88798 0.34257C8.65992 0.114201 8.38925 0 8.07677 0H2.30772C1.99515 0 1.72475 0.114201 1.49639 0.34257C1.26798 0.57094 1.15381 0.841302 1.15381 1.15391C1.15381 1.46645 1.26798 1.73688 1.49639 1.96525C1.72475 2.19359 1.99524 2.30776 2.30772 2.30776V6.92311C1.71276 6.92311 1.17948 7.21908 0.707684 7.81104C0.235947 8.40304 0 9.06842 0 9.8078C0 9.96403 0.0571162 10.0993 0.171317 10.2134C0.285581 10.3275 0.420777 10.3846 0.577034 10.3846H4.21882L4.9039 14.7567C4.9339 14.919 5.03007 15 5.19232 15H5.20151C5.27331 15 5.33522 14.9745 5.38625 14.9235C5.43724 14.8724 5.46878 14.8107 5.48078 14.7386L5.94042 10.3846H9.80758C9.96381 10.3846 10.0992 10.3275 10.2132 10.2135C10.3275 10.0994 10.3847 9.96409 10.3847 9.80783C10.3848 9.06855 10.1486 8.40308 9.67687 7.81108ZM4.32693 6.63481C4.32693 6.71886 4.29994 6.78791 4.24579 6.84209C4.1917 6.89621 4.12256 6.92323 4.03845 6.92323C3.9544 6.92323 3.88522 6.89624 3.8311 6.84209C3.77702 6.78801 3.75002 6.71886 3.75002 6.63481V2.59637C3.75002 2.51226 3.77702 2.44298 3.8311 2.38903C3.88522 2.335 3.9544 2.30795 4.03845 2.30795C4.12256 2.30795 4.1917 2.33491 4.24579 2.38903C4.2999 2.44308 4.32693 2.51226 4.32693 2.59637V6.63481Z" fill="#454545"/>
</svg>
