<svg width="32" height="20" viewBox="0 0 32 20" fill="none" xmlns="http://www.w3.org/2000/svg">
<path d="M31.7147 17.1561C31.6287 17.0121 31.0967 15.856 28.5365 13.4798C25.8563 10.9916 26.2163 11.3957 29.4446 7.09336C31.4107 4.47317 32.1968 2.87305 31.9508 2.189C31.7167 1.53695 30.2706 1.70896 30.2706 1.70896L25.4623 1.73696C25.4623 1.73696 25.1063 1.68896 24.8402 1.84697C24.5822 2.00298 24.4162 2.36301 24.4162 2.36301C24.4162 2.36301 23.6541 4.39116 22.6381 6.11529C20.4959 9.75356 19.6378 9.94557 19.2878 9.71955C18.4738 9.19351 18.6778 7.6034 18.6778 6.47531C18.6778 2.94905 19.2118 1.47894 17.6357 1.09891C17.1117 0.972905 16.7276 0.888898 15.3895 0.874897C13.6734 0.856896 12.2193 0.880898 11.3972 1.28293C10.8492 1.55095 10.4272 2.14899 10.6852 2.18299C11.0032 2.225 11.7233 2.37701 12.1053 2.89705C12.5993 3.5671 12.5813 5.07521 12.5813 5.07521C12.5813 5.07521 12.8653 9.22552 11.9193 9.74156C11.2692 10.0956 10.3792 9.37353 8.46902 6.07128C7.49095 4.38116 6.7509 2.51102 6.7509 2.51102C6.7509 2.51102 6.60888 2.16299 6.35487 1.97698C6.04684 1.75096 5.61481 1.67896 5.61481 1.67896L1.04247 1.70696C1.04247 1.70696 0.356423 1.72696 0.104405 2.02498C-0.119612 2.291 0.0864033 2.83904 0.0864033 2.83904C0.0864033 2.83904 3.66667 11.2137 7.71897 15.436C11.4372 19.3063 15.6576 19.0522 15.6576 19.0522H17.5697C17.5697 19.0522 18.1477 18.9882 18.4418 18.6702C18.7138 18.3782 18.7038 17.8302 18.7038 17.8302C18.7038 17.8302 18.6658 15.264 19.8579 14.8859C21.0319 14.5139 22.5401 17.3661 24.1382 18.4642C25.3463 19.2943 26.2643 19.1123 26.2643 19.1123L30.5387 19.0522C30.5387 19.0522 32.7748 18.9142 31.7147 17.1561Z" fill="#828282"/>
</svg>
