<svg width="24" height="24" viewBox="0 0 24 24" fill="none" xmlns="http://www.w3.org/2000/svg">
<g clip-path="url(#clip0)">
<path d="M23.786 17.3671C23.7215 17.2591 23.3225 16.392 21.4024 14.6099C19.3922 12.7438 19.6622 13.0468 22.0834 9.82005C23.558 7.8549 24.1476 6.65481 23.963 6.14178C23.7875 5.65274 22.7029 5.78175 22.7029 5.78175L19.0967 5.80275C19.0967 5.80275 18.8297 5.76675 18.6301 5.88526C18.4366 6.00227 18.3121 6.27229 18.3121 6.27229C18.3121 6.27229 17.7406 7.7934 16.9785 9.0865C15.3719 11.8152 14.7284 11.9592 14.4658 11.7897C13.8553 11.3952 14.0083 10.2026 14.0083 9.35652C14.0083 6.71182 14.4088 5.60924 13.2267 5.32422C12.8337 5.22971 12.5457 5.1667 11.5421 5.1562C10.255 5.1427 9.16445 5.1607 8.5479 5.46223C8.13687 5.66324 7.82035 6.11177 8.01386 6.13728C8.25238 6.16878 8.79242 6.28279 9.07894 6.67282C9.44947 7.17535 9.43597 8.30644 9.43597 8.30644C9.43597 8.30644 9.64899 11.4192 8.93943 11.8062C8.4519 12.0717 7.78435 11.5302 6.35174 9.05349C5.61819 7.7859 5.06315 6.3833 5.06315 6.3833C5.06315 6.3833 4.95664 6.12228 4.76613 5.98277C4.53511 5.81325 4.21108 5.75925 4.21108 5.75925L0.781832 5.78025C0.781832 5.78025 0.267294 5.79525 0.0782796 6.01877C-0.0897328 6.21828 0.0647786 6.62931 0.0647786 6.62931C0.0647786 6.62931 2.74998 12.9103 5.7892 16.077C8.57791 18.9797 11.7431 18.7892 11.7431 18.7892H13.1772C13.1772 18.7892 13.6108 18.7412 13.8313 18.5027C14.0353 18.2837 14.0278 17.8726 14.0278 17.8726C14.0278 17.8726 13.9993 15.948 14.8934 15.6645C15.7739 15.3855 16.905 17.5246 18.1036 18.3482C19.0097 18.9707 19.6982 18.8342 19.6982 18.8342L22.904 18.7892C22.904 18.7892 24.5811 18.6857 23.786 17.3671Z" fill="#828282"/>
</g>
<defs>
<clipPath id="clip0">
<rect width="24" height="24" fill="white"/>
</clipPath>
</defs>
</svg>
