<svg width="21" height="13" viewBox="0 0 21 13" fill="none" xmlns="http://www.w3.org/2000/svg">
<path d="M17.4256 7.39949C17.0861 6.97074 17.1832 6.77999 17.4256 6.39674C17.43 6.39236 20.2326 2.51961 20.5214 1.20623L20.5231 1.20536C20.6666 0.726735 20.5231 0.374985 19.8292 0.374985H17.5332C16.9487 0.374985 16.6792 0.67686 16.5349 1.01461C16.5349 1.01461 15.3659 3.81286 13.7121 5.62674C13.1784 6.15086 12.9316 6.31886 12.6402 6.31886C12.4967 6.31886 12.2736 6.15086 12.2736 5.67224V1.20536C12.2736 0.63136 12.11 0.374985 11.6261 0.374985H8.01587C7.64924 0.374985 7.43137 0.642735 7.43137 0.89211C7.43137 1.43636 8.25824 1.56148 8.34399 3.09274V6.41511C8.34399 7.14311 8.21187 7.27699 7.91874 7.27699C7.13824 7.27699 5.24387 4.46736 4.12124 1.25173C3.89462 0.62786 3.67324 0.37586 3.08437 0.37586H0.787492C0.132117 0.37586 -7.62939e-06 0.677735 -7.62939e-06 1.01548C-7.62939e-06 1.61223 0.780492 4.57936 3.62949 8.49936C5.52824 11.1751 8.20224 12.625 10.6347 12.625C12.0969 12.625 12.2754 12.303 12.2754 11.7491C12.2754 9.19236 12.1432 8.95086 12.8756 8.95086C13.2151 8.95086 13.7996 9.11886 15.1646 10.4095C16.7247 11.9399 16.9811 12.625 17.8544 12.625H20.1504C20.8049 12.625 21.1365 12.303 20.9457 11.6677C20.5091 10.3316 17.5586 7.58324 17.4256 7.39949Z" fill="#656565"/>
</svg>
