<svg width="25" height="26" viewBox="0 0 25 26" fill="none" xmlns="http://www.w3.org/2000/svg">
<path fill-rule="evenodd" clip-rule="evenodd" d="M12.444 21.5108C17.0257 21.5108 20.7399 17.7966 20.7399 13.2149C20.7399 8.63318 17.0257 4.91896 12.444 4.91896C7.86224 4.91896 4.14802 8.63318 4.14802 13.2149C4.14802 17.7966 7.86224 21.5108 12.444 21.5108ZM12.444 23.5848C18.1711 23.5848 22.8139 18.9421 22.8139 13.2149C22.8139 7.48775 18.1711 2.84497 12.444 2.84497C6.71681 2.84497 2.07404 7.48775 2.07404 13.2149C2.07404 18.9421 6.71681 23.5848 12.444 23.5848Z" fill="#828282"/>
<path fill-rule="evenodd" clip-rule="evenodd" d="M14.2553 19.62C15.0213 18.088 15.555 15.8263 15.555 13.2149C15.555 10.6035 15.0213 8.34183 14.2553 6.80977C13.4272 5.15365 12.667 4.91896 12.444 4.91896C12.221 4.91896 11.4608 5.15365 10.6327 6.80977C9.86667 8.34183 9.33302 10.6035 9.33302 13.2149C9.33302 15.8263 9.86667 18.088 10.6327 19.62C11.4608 21.2761 12.221 21.5108 12.444 21.5108C12.667 21.5108 13.4272 21.2761 14.2553 19.62ZM12.444 23.5848C15.3076 23.5848 17.629 18.9421 17.629 13.2149C17.629 7.48775 15.3076 2.84497 12.444 2.84497C9.58042 2.84497 7.25903 7.48775 7.25903 13.2149C7.25903 18.9421 9.58042 23.5848 12.444 23.5848Z" fill="#828282"/>
<path fill-rule="evenodd" clip-rule="evenodd" d="M22.7627 14.2519C22.7966 13.9108 22.8139 13.5649 22.8139 13.2149C22.8139 12.8649 22.7966 12.519 22.7627 12.1779H2.12524C2.09137 12.519 2.07404 12.8649 2.07404 13.2149C2.07404 13.5649 2.09137 13.9108 2.12524 14.2519H22.7627Z" fill="#828282"/>
</svg>
