<svg width="37" height="37" viewBox="0 0 37 37" fill="none" xmlns="http://www.w3.org/2000/svg">
<g clip-path="url(#clip0)">
<path d="M36.2377 9.61814C35.8111 8.03311 34.5615 6.78371 32.9767 6.35689C30.0813 5.56451 18.4996 5.56451 18.4996 5.56451C18.4996 5.56451 6.91828 5.56451 4.02286 6.32669C2.46859 6.75322 1.18843 8.03339 0.761891 9.61814C0 12.5133 0 18.5175 0 18.5175C0 18.5175 0 24.5519 0.761891 27.4169C1.18871 29.0016 2.43811 30.2513 4.02315 30.6781C6.94876 31.4705 18.4999 31.4705 18.4999 31.4705C18.4999 31.4705 30.0813 31.4705 32.9767 30.7083C34.5617 30.2818 35.8111 29.0321 36.238 27.4473C36.9998 24.5519 36.9998 18.548 36.9998 18.548C36.9998 18.548 37.0303 12.5133 36.2377 9.61814Z" fill="url(#paint0_linear)"/>
<path d="M14.812 24.0645L24.4428 18.5175L14.812 12.9706V24.0645Z" fill="#1D1D1D"/>
</g>
<defs>
<linearGradient id="paint0_linear" x1="0" y1="18.1474" x2="37" y2="18.1474" gradientUnits="userSpaceOnUse">
<stop stop-color="#9C6D41"/>
<stop offset="1" stop-color="#DCAD68"/>
</linearGradient>
<clipPath id="clip0">
<rect width="37" height="37" fill="white"/>
</clipPath>
</defs>
</svg>
